<mxfile host="Electron" agent="Mozilla/5.0 (Windows NT 10.0; Win64; x64) AppleWebKit/537.36 (KHTML, like Gecko) draw.io/27.0.9 Chrome/134.0.6998.205 Electron/35.4.0 Safari/537.36" version="27.0.9">
  <diagram name="第1頁" id="YCpJO0DAu1QPxg1YwKP1">
    <mxGraphModel dx="1011" dy="630" grid="1" gridSize="10" guides="1" tooltips="1" connect="1" arrows="1" fold="1" page="1" pageScale="1" pageWidth="827" pageHeight="1169" math="0" shadow="0">
      <root>
        <mxCell id="0" />
        <mxCell id="1" parent="0" />
        <mxCell id="JsC5JSIqm7gRyBDHvXwP-1" value="&lt;font style=&quot;font-size: 16px;&quot;&gt;start&lt;/font&gt;" style="strokeWidth=2;html=1;shape=mxgraph.flowchart.start_1;whiteSpace=wrap;" parent="1" vertex="1">
          <mxGeometry x="90" y="90" width="100" height="60" as="geometry" />
        </mxCell>
        <mxCell id="iyrUOCgm4iKhmQNCQJNH-1" style="edgeStyle=orthogonalEdgeStyle;rounded=0;orthogonalLoop=1;jettySize=auto;html=1;exitX=1;exitY=0.5;exitDx=0;exitDy=0;entryX=0;entryY=0.5;entryDx=0;entryDy=0;" edge="1" parent="1" source="JsC5JSIqm7gRyBDHvXwP-2" target="JsC5JSIqm7gRyBDHvXwP-3">
          <mxGeometry relative="1" as="geometry" />
        </mxCell>
        <mxCell id="JsC5JSIqm7gRyBDHvXwP-2" value="input message" style="shape=parallelogram;html=1;strokeWidth=2;perimeter=parallelogramPerimeter;whiteSpace=wrap;rounded=1;arcSize=12;size=0.23;" parent="1" vertex="1">
          <mxGeometry x="80" y="190" width="120" height="50" as="geometry" />
        </mxCell>
        <mxCell id="iyrUOCgm4iKhmQNCQJNH-2" style="edgeStyle=orthogonalEdgeStyle;rounded=0;orthogonalLoop=1;jettySize=auto;html=1;exitX=1;exitY=0.5;exitDx=0;exitDy=0;entryX=0;entryY=0.5;entryDx=0;entryDy=0;" edge="1" parent="1" source="JsC5JSIqm7gRyBDHvXwP-3" target="JsC5JSIqm7gRyBDHvXwP-4">
          <mxGeometry relative="1" as="geometry" />
        </mxCell>
        <mxCell id="JsC5JSIqm7gRyBDHvXwP-3" value="打包 message" style="rounded=1;whiteSpace=wrap;html=1;absoluteArcSize=1;arcSize=14;strokeWidth=2;" parent="1" vertex="1">
          <mxGeometry x="250" y="185" width="100" height="60" as="geometry" />
        </mxCell>
        <mxCell id="iyrUOCgm4iKhmQNCQJNH-3" style="edgeStyle=orthogonalEdgeStyle;rounded=0;orthogonalLoop=1;jettySize=auto;html=1;exitX=1;exitY=0.5;exitDx=0;exitDy=0;entryX=0;entryY=0.5;entryDx=0;entryDy=0;" edge="1" parent="1" source="JsC5JSIqm7gRyBDHvXwP-4" target="JsC5JSIqm7gRyBDHvXwP-5">
          <mxGeometry relative="1" as="geometry" />
        </mxCell>
        <mxCell id="JsC5JSIqm7gRyBDHvXwP-4" value="計算並打包byte_en" style="rounded=1;whiteSpace=wrap;html=1;absoluteArcSize=1;arcSize=14;strokeWidth=2;" parent="1" vertex="1">
          <mxGeometry x="390" y="185" width="100" height="60" as="geometry" />
        </mxCell>
        <mxCell id="iyrUOCgm4iKhmQNCQJNH-4" style="edgeStyle=orthogonalEdgeStyle;rounded=0;orthogonalLoop=1;jettySize=auto;html=1;exitX=1;exitY=0.5;exitDx=0;exitDy=0;" edge="1" parent="1" source="JsC5JSIqm7gRyBDHvXwP-5" target="JsC5JSIqm7gRyBDHvXwP-6">
          <mxGeometry relative="1" as="geometry" />
        </mxCell>
        <mxCell id="JsC5JSIqm7gRyBDHvXwP-5" value="找出&lt;div&gt;last_word&lt;/div&gt;" style="rounded=1;whiteSpace=wrap;html=1;absoluteArcSize=1;arcSize=14;strokeWidth=2;" parent="1" vertex="1">
          <mxGeometry x="520" y="185" width="100" height="60" as="geometry" />
        </mxCell>
        <mxCell id="iyrUOCgm4iKhmQNCQJNH-5" style="edgeStyle=orthogonalEdgeStyle;rounded=0;orthogonalLoop=1;jettySize=auto;html=1;exitX=1;exitY=0.5;exitDx=0;exitDy=0;entryX=0;entryY=0.5;entryDx=0;entryDy=0;" edge="1" parent="1" source="JsC5JSIqm7gRyBDHvXwP-6" target="JsC5JSIqm7gRyBDHvXwP-7">
          <mxGeometry relative="1" as="geometry" />
        </mxCell>
        <mxCell id="JsC5JSIqm7gRyBDHvXwP-6" value="將message寫進slv_reg2~slv_reg9" style="rounded=1;whiteSpace=wrap;html=1;absoluteArcSize=1;arcSize=14;strokeWidth=2;" parent="1" vertex="1">
          <mxGeometry x="650" y="185" width="100" height="60" as="geometry" />
        </mxCell>
        <mxCell id="iyrUOCgm4iKhmQNCQJNH-9" style="edgeStyle=orthogonalEdgeStyle;rounded=0;orthogonalLoop=1;jettySize=auto;html=1;exitX=0.5;exitY=1;exitDx=0;exitDy=0;entryX=0.5;entryY=0;entryDx=0;entryDy=0;" edge="1" parent="1" source="JsC5JSIqm7gRyBDHvXwP-7" target="JsC5JSIqm7gRyBDHvXwP-8">
          <mxGeometry relative="1" as="geometry">
            <Array as="points">
              <mxPoint x="830" y="260" />
              <mxPoint x="750" y="260" />
            </Array>
          </mxGeometry>
        </mxCell>
        <mxCell id="JsC5JSIqm7gRyBDHvXwP-7" value="將byte_en&lt;div&gt;寫進slv_reg1&lt;/div&gt;" style="rounded=1;whiteSpace=wrap;html=1;absoluteArcSize=1;arcSize=14;strokeWidth=2;" parent="1" vertex="1">
          <mxGeometry x="780" y="185" width="100" height="60" as="geometry" />
        </mxCell>
        <mxCell id="JsC5JSIqm7gRyBDHvXwP-8" value="將start_f =1, vld_f =1, byte_len, last_word&lt;div&gt;組合並寫入slv_reg0&lt;/div&gt;" style="rounded=1;whiteSpace=wrap;html=1;absoluteArcSize=1;arcSize=14;strokeWidth=2;" parent="1" vertex="1">
          <mxGeometry x="620" y="280" width="260" height="60" as="geometry" />
        </mxCell>
        <mxCell id="JsC5JSIqm7gRyBDHvXwP-9" value="將slv_reg0中的&lt;div&gt;vld_f和start_f拉成0&lt;/div&gt;" style="rounded=1;whiteSpace=wrap;html=1;absoluteArcSize=1;arcSize=14;strokeWidth=2;direction=west;" parent="1" vertex="1">
          <mxGeometry x="477.5" y="430" width="132.5" height="60" as="geometry" />
        </mxCell>
        <mxCell id="JsC5JSIqm7gRyBDHvXwP-10" value="interface已完成&lt;div&gt;傳送data給sha2？&lt;/div&gt;" style="strokeWidth=2;html=1;shape=mxgraph.flowchart.decision;whiteSpace=wrap;direction=west;" parent="1" vertex="1">
          <mxGeometry x="675" y="390" width="150" height="140" as="geometry" />
        </mxCell>
        <mxCell id="iyrUOCgm4iKhmQNCQJNH-10" style="edgeStyle=orthogonalEdgeStyle;rounded=0;orthogonalLoop=1;jettySize=auto;html=1;exitX=0.5;exitY=1;exitDx=0;exitDy=0;exitPerimeter=0;" edge="1" parent="1" source="JsC5JSIqm7gRyBDHvXwP-12">
          <mxGeometry relative="1" as="geometry">
            <mxPoint x="420" y="460" as="targetPoint" />
            <Array as="points">
              <mxPoint x="325" y="370" />
              <mxPoint x="420" y="370" />
            </Array>
          </mxGeometry>
        </mxCell>
        <mxCell id="iyrUOCgm4iKhmQNCQJNH-11" value="false" style="edgeLabel;html=1;align=center;verticalAlign=middle;resizable=0;points=[];" vertex="1" connectable="0" parent="iyrUOCgm4iKhmQNCQJNH-10">
          <mxGeometry x="-0.2184" relative="1" as="geometry">
            <mxPoint as="offset" />
          </mxGeometry>
        </mxCell>
        <mxCell id="JsC5JSIqm7gRyBDHvXwP-12" value="&lt;span style=&quot;background-color: transparent; color: light-dark(rgb(0, 0, 0), rgb(255, 255, 255));&quot;&gt;interface已準備好&lt;/span&gt;&lt;div&gt;&lt;span style=&quot;background-color: transparent; color: light-dark(rgb(0, 0, 0), rgb(255, 255, 255));&quot;&gt;正確digest？&lt;/span&gt;&lt;/div&gt;" style="strokeWidth=2;html=1;shape=mxgraph.flowchart.decision;whiteSpace=wrap;direction=west;" parent="1" vertex="1">
          <mxGeometry x="250" y="390" width="150" height="140" as="geometry" />
        </mxCell>
        <mxCell id="JsC5JSIqm7gRyBDHvXwP-13" value="" style="endArrow=classic;html=1;rounded=0;exitX=0.5;exitY=1;exitDx=0;exitDy=0;exitPerimeter=0;" parent="1" source="JsC5JSIqm7gRyBDHvXwP-1" target="JsC5JSIqm7gRyBDHvXwP-2" edge="1">
          <mxGeometry width="50" height="50" relative="1" as="geometry">
            <mxPoint x="250" y="180" as="sourcePoint" />
            <mxPoint x="250" y="240" as="targetPoint" />
          </mxGeometry>
        </mxCell>
        <mxCell id="JsC5JSIqm7gRyBDHvXwP-20" value="" style="endArrow=classic;html=1;rounded=0;exitX=0.5;exitY=1;exitDx=0;exitDy=0;entryX=0.5;entryY=1;entryDx=0;entryDy=0;entryPerimeter=0;" parent="1" source="JsC5JSIqm7gRyBDHvXwP-8" target="JsC5JSIqm7gRyBDHvXwP-10" edge="1">
          <mxGeometry width="50" height="50" relative="1" as="geometry">
            <mxPoint x="380" y="360" as="sourcePoint" />
            <mxPoint x="740" y="390" as="targetPoint" />
          </mxGeometry>
        </mxCell>
        <mxCell id="JsC5JSIqm7gRyBDHvXwP-21" value="" style="endArrow=classic;html=1;rounded=0;exitX=1;exitY=0.5;exitDx=0;exitDy=0;exitPerimeter=0;" parent="1" source="JsC5JSIqm7gRyBDHvXwP-10" target="JsC5JSIqm7gRyBDHvXwP-9" edge="1">
          <mxGeometry width="50" height="50" relative="1" as="geometry">
            <mxPoint x="370" y="580" as="sourcePoint" />
            <mxPoint x="370" y="630" as="targetPoint" />
          </mxGeometry>
        </mxCell>
        <mxCell id="JsC5JSIqm7gRyBDHvXwP-29" value="true" style="edgeLabel;html=1;align=center;verticalAlign=middle;resizable=0;points=[];" parent="JsC5JSIqm7gRyBDHvXwP-21" vertex="1" connectable="0">
          <mxGeometry x="-0.2254" y="-1" relative="1" as="geometry">
            <mxPoint as="offset" />
          </mxGeometry>
        </mxCell>
        <mxCell id="JsC5JSIqm7gRyBDHvXwP-22" value="" style="endArrow=classic;html=1;rounded=0;exitX=1;exitY=0.5;exitDx=0;exitDy=0;entryX=0;entryY=0.5;entryDx=0;entryDy=0;entryPerimeter=0;" parent="1" source="JsC5JSIqm7gRyBDHvXwP-9" target="JsC5JSIqm7gRyBDHvXwP-12" edge="1">
          <mxGeometry width="50" height="50" relative="1" as="geometry">
            <mxPoint x="460" y="620" as="sourcePoint" />
            <mxPoint x="460" y="710" as="targetPoint" />
          </mxGeometry>
        </mxCell>
        <mxCell id="JsC5JSIqm7gRyBDHvXwP-23" value="" style="endArrow=classic;html=1;rounded=0;exitX=0;exitY=0.5;exitDx=0;exitDy=0;exitPerimeter=0;" parent="1" source="JsC5JSIqm7gRyBDHvXwP-10" edge="1">
          <mxGeometry width="50" height="50" relative="1" as="geometry">
            <mxPoint x="270" y="375" as="sourcePoint" />
            <mxPoint x="750" y="370" as="targetPoint" />
            <Array as="points">
              <mxPoint x="860" y="460" />
              <mxPoint x="860" y="370" />
            </Array>
          </mxGeometry>
        </mxCell>
        <mxCell id="JsC5JSIqm7gRyBDHvXwP-28" value="false" style="edgeLabel;html=1;align=center;verticalAlign=middle;resizable=0;points=[];" parent="JsC5JSIqm7gRyBDHvXwP-23" vertex="1" connectable="0">
          <mxGeometry x="-0.1216" y="1" relative="1" as="geometry">
            <mxPoint y="19" as="offset" />
          </mxGeometry>
        </mxCell>
        <mxCell id="JsC5JSIqm7gRyBDHvXwP-25" value="" style="endArrow=classic;html=1;rounded=0;exitX=1;exitY=0.5;exitDx=0;exitDy=0;exitPerimeter=0;entryX=1;entryY=0.5;entryDx=0;entryDy=0;" parent="1" source="JsC5JSIqm7gRyBDHvXwP-12" edge="1">
          <mxGeometry width="50" height="50" relative="1" as="geometry">
            <mxPoint x="490" y="560" as="sourcePoint" />
            <mxPoint x="186.20000000000005" y="460" as="targetPoint" />
          </mxGeometry>
        </mxCell>
        <mxCell id="JsC5JSIqm7gRyBDHvXwP-30" value="true" style="edgeLabel;html=1;align=center;verticalAlign=middle;resizable=0;points=[];" parent="JsC5JSIqm7gRyBDHvXwP-25" vertex="1" connectable="0">
          <mxGeometry x="0.2339" y="1" relative="1" as="geometry">
            <mxPoint x="9" y="-1" as="offset" />
          </mxGeometry>
        </mxCell>
        <mxCell id="YdtEPcg2WBOnpNlmmzdV-2" style="edgeStyle=orthogonalEdgeStyle;rounded=0;orthogonalLoop=1;jettySize=auto;html=1;exitX=0.5;exitY=0;exitDx=0;exitDy=0;" parent="1" target="JsC5JSIqm7gRyBDHvXwP-2" edge="1">
          <mxGeometry relative="1" as="geometry">
            <mxPoint x="140" y="435" as="sourcePoint" />
          </mxGeometry>
        </mxCell>
        <mxCell id="iyrUOCgm4iKhmQNCQJNH-12" value="print digest" style="shape=parallelogram;html=1;strokeWidth=2;perimeter=parallelogramPerimeter;whiteSpace=wrap;rounded=1;arcSize=12;size=0.23;" vertex="1" parent="1">
          <mxGeometry x="80" y="435" width="120" height="50" as="geometry" />
        </mxCell>
      </root>
    </mxGraphModel>
  </diagram>
</mxfile>
